<svg xmlns="http://www.w3.org/2000/svg">
	<symbol viewBox="0 0 32 32" id="arrow-down">
		<g id="Group_49" data-name="Group 49" transform="translate(-309.999 -175.929)">
			<path id="Path_299" data-name="Path 299"
				d="M338,175.929H314a4,4,0,0,0-4,4v24a4,4,0,0,0,4,4h24a4,4,0,0,0,4-4v-24A4,4,0,0,0,338,175.929Zm0,28H314v-24h24Z" />
			<rect id="Rectangle_10" data-name="Rectangle 10" width="4" height="7.999"
				transform="translate(324.001 184.929)" />
			<path id="Path_304" data-name="Path 304" d="M320,192.928h6v6Z" />
			<path id="Path_305" data-name="Path 305" d="M332,192.928h-6v6Z" />
		</g>
	</symbol>
	<symbol viewBox="0 0 24 24" id="facebook">
		<path fill-rule="evenodd" clip-rule="evenodd"
			d="M2 6C2 3.79086 3.79086 2 6 2H18C20.2091 2 22 3.79086 22 6V18C22 20.2091 20.2091 22 18 22H6C3.79086 22 2 20.2091 2 18V6ZM6 4C4.89543 4 4 4.89543 4 6V18C4 19.1046 4.89543 20 6 20H12V13H11C10.4477 13 10 12.5523 10 12C10 11.4477 10.4477 11 11 11H12V9.5C12 7.567 13.567 6 15.5 6H16.1C16.6523 6 17.1 6.44772 17.1 7C17.1 7.55228 16.6523 8 16.1 8H15.5C14.6716 8 14 8.67157 14 9.5V11H16.1C16.6523 11 17.1 11.4477 17.1 12C17.1 12.5523 16.6523 13 16.1 13H14V20H18C19.1046 20 20 19.1046 20 18V6C20 4.89543 19.1046 4 18 4H6Z" />
	</symbol>
	<symbol viewBox="0 0 24 24" id="gallery">
<path d="M9 10C10.1046 10 11 9.10457 11 8C11 6.89543 10.1046 6 9 6C7.89543 6 7 6.89543 7 8C7 9.10457 7.89543 10 9 10Z" stroke="#292D32" stroke-width="1.5" stroke-linecap="round" stroke-linejoin="round"/>
<path d="M13 2H9C4 2 2 4 2 9V15C2 20 4 22 9 22H15C20 22 22 20 22 15V10" stroke="#292D32" stroke-width="1.5" stroke-linecap="round" stroke-linejoin="round"/>
<path d="M19.1399 2.58991L15.5099 6.21991C15.3699 6.35991 15.2299 6.62991 15.2099 6.82991L15.0099 8.21991C14.9399 8.71991 15.2899 9.06991 15.7899 8.99991L17.1799 8.79991C17.3699 8.76991 17.6499 8.63991 17.7899 8.49991L21.4199 4.86991C22.0499 4.23991 22.3399 3.51991 21.4199 2.59991C20.4899 1.65991 19.7699 1.95991 19.1399 2.58991Z" stroke="#292D32" stroke-width="1.5" stroke-miterlimit="10" stroke-linecap="round" stroke-linejoin="round"/>
<path d="M18.6201 3.11011C18.9301 4.21011 19.7901 5.07011 20.8901 5.38011" stroke="#292D32" stroke-width="1.5" stroke-miterlimit="10" stroke-linecap="round" stroke-linejoin="round"/>
<path d="M2.66992 18.9501L7.59992 15.6401C8.38992 15.1101 9.52992 15.1701 10.2399 15.7801L10.5699 16.0701C11.3499 16.7401 12.6099 16.7401 13.3899 16.0701L17.5499 12.5001C18.3299 11.8301 19.5899 11.8301 20.3699 12.5001L21.9999 13.9001"/>
	</symbol>
	<symbol viewBox="0 0 32 32" id="home">
		<path
			d="M31.772 16.043l-15.012-15.724c-0.189-0.197-0.449-0.307-0.721-0.307s-0.533 0.111-0.722 0.307l-15.089 15.724c-0.383 0.398-0.369 1.031 0.029 1.414 0.399 0.382 1.031 0.371 1.414-0.029l1.344-1.401v14.963c0 0.552 0.448 1 1 1h6.986c0.551 0 0.998-0.445 1-0.997l0.031-9.989h7.969v9.986c0 0.552 0.448 1 1 1h6.983c0.552 0 1-0.448 1-1v-14.968l1.343 1.407c0.197 0.204 0.459 0.308 0.722 0.308 0.249 0 0.499-0.092 0.692-0.279 0.398-0.382 0.411-1.015 0.029-1.413zM26.985 14.213v15.776h-4.983v-9.986c0-0.552-0.448-1-1-1h-9.965c-0.551 0-0.998 0.445-1 0.997l-0.031 9.989h-4.989v-15.777c0-0.082-0.013-0.162-0.032-0.239l11.055-11.52 10.982 11.507c-0.021 0.081-0.036 0.165-0.036 0.252z">
		</path>
	</symbol>
	<symbol viewBox="0 0 100 100" enable-background="new 0 0 100 100" id="left-arrow">
		<g>
			<path d="M44.942,50.412l14.037-15.487c0.742-0.818,0.68-2.083-0.139-2.824c-0.817-0.742-2.083-0.679-2.824,0.139L40.784,49.044
		c-0.409,0.451-0.565,1.038-0.493,1.598c-0.016,0.564,0.196,1.131,0.647,1.539L57.74,67.412c0.383,0.348,0.864,0.519,1.344,0.519
		c0.545,0,1.087-0.222,1.482-0.657c0.741-0.818,0.68-2.083-0.139-2.824L44.942,50.412z" />
			<path d="M84.133,49.756c0-18.448-15.01-33.457-33.458-33.457S17.218,31.308,17.218,49.756c0,18.449,15.009,33.458,33.457,33.458
		S84.133,68.205,84.133,49.756z M50.675,79.214c-16.243,0-29.457-13.215-29.457-29.458c0-16.242,13.214-29.457,29.457-29.457
		c16.243,0,29.458,13.215,29.458,29.457C80.133,65.999,66.918,79.214,50.675,79.214z" />
		</g>
	</symbol>
	<symbol viewBox="0 0 32 32" id="telegram">
		<title>telegram</title>
		<path
			d="M22.122 10.040c0.006-0 0.014-0 0.022-0 0.209 0 0.403 0.065 0.562 0.177l-0.003-0.002c0.116 0.101 0.194 0.243 0.213 0.403l0 0.003c0.020 0.122 0.031 0.262 0.031 0.405 0 0.065-0.002 0.129-0.007 0.193l0-0.009c-0.225 2.369-1.201 8.114-1.697 10.766-0.21 1.123-0.623 1.499-1.023 1.535-0.869 0.081-1.529-0.574-2.371-1.126-1.318-0.865-2.063-1.403-3.342-2.246-1.479-0.973-0.52-1.51 0.322-2.384 0.221-0.23 4.052-3.715 4.127-4.031 0.004-0.019 0.006-0.040 0.006-0.062 0-0.078-0.029-0.149-0.076-0.203l0 0c-0.052-0.034-0.117-0.053-0.185-0.053-0.045 0-0.088 0.009-0.128 0.024l0.002-0.001q-0.198 0.045-6.316 4.174c-0.445 0.351-1.007 0.573-1.619 0.599l-0.006 0c-0.867-0.105-1.654-0.298-2.401-0.573l0.074 0.024c-0.938-0.306-1.683-0.467-1.619-0.985q0.051-0.404 1.114-0.827 6.548-2.853 8.733-3.761c1.607-0.853 3.47-1.555 5.429-2.010l0.157-0.031zM15.93 1.025c-8.302 0.020-15.025 6.755-15.025 15.060 0 8.317 6.742 15.060 15.060 15.060s15.060-6.742 15.060-15.060c0-8.305-6.723-15.040-15.023-15.060h-0.002q-0.035-0-0.070 0z">
		</path>
	</symbol>
	<symbol viewBox="-143 145 512 512" id="twitter">
		<g>
			<path d="M329,145h-432c-22.1,0-40,17.9-40,40v432c0,22.1,17.9,40,40,40h432c22.1,0,40-17.9,40-40V185C369,162.9,351.1,145,329,145z
		 M339,617c0,5.5-4.5,10-10,10h-432c-5.5,0-10-4.5-10-10V185c0-5.5,4.5-10,10-10h432c5.5,0,10,4.5,10,10V617z" />
			<path d="M234.3,313.1c-10.2,6-21.4,10.4-33.4,12.8c-9.6-10.2-23.3-16.6-38.4-16.6c-29,0-52.6,23.6-52.6,52.6c0,4.1,0.4,8.1,1.4,12
		c-43.7-2.2-82.5-23.1-108.4-55c-4.5,7.8-7.1,16.8-7.1,26.5c0,18.2,9.3,34.3,23.4,43.8c-8.6-0.3-16.7-2.7-23.8-6.6v0.6
		c0,25.5,18.1,46.8,42.2,51.6c-4.4,1.2-9.1,1.9-13.9,1.9c-3.4,0-6.7-0.3-9.9-0.9c6.7,20.9,26.1,36.1,49.1,36.5
		c-18,14.1-40.7,22.5-65.3,22.5c-4.2,0-8.4-0.2-12.6-0.7c23.3,14.9,50.9,23.6,80.6,23.6c96.8,0,149.7-80.2,149.7-149.7
		c0-2.3,0-4.6-0.1-6.8c10.3-7.5,19.2-16.7,26.2-27.3c-9.4,4.2-19.6,7-30.2,8.3C222.1,335.7,230.4,325.4,234.3,313.1z" />
		</g>
	</symbol>
	<symbol viewBox="0 0 24 24" id="viber">
		<path
		d="M11.398.002C9.473.028 5.331.344 3.014 2.467 1.294 4.177.693 6.698.623 9.82c-.06 3.11-.13 8.95 5.5 10.541v2.42s-.038.97.602 1.17c.79.25 1.24-.499 1.99-1.299l1.4-1.58c3.85.32 6.8-.419 7.14-.529.78-.25 5.181-.811 5.901-6.652.74-6.031-.36-9.831-2.34-11.551l-.01-.002c-.6-.55-3-2.3-8.37-2.32 0 0-.396-.025-1.038-.016zm.067 1.697c.545-.003.88.02.88.02 4.54.01 6.711 1.38 7.221 1.84 1.67 1.429 2.528 4.856 1.9 9.892-.6 4.88-4.17 5.19-4.83 5.4-.28.09-2.88.73-6.152.52 0 0-2.439 2.941-3.199 3.701-.12.13-.26.17-.35.15-.13-.03-.17-.19-.16-.41l.02-4.019c-4.771-1.32-4.491-6.302-4.441-8.902.06-2.6.55-4.732 2-6.172 1.957-1.77 5.475-2.01 7.11-2.02zm.36 2.6a.299.299 0 0 0-.3.299.3.3 0 0 0 .3.3 5.631 5.631 0 0 1 4.03 1.59c1.09 1.06 1.621 2.48 1.641 4.34a.3.3 0 0 0 .3.3v-.009a.3.3 0 0 0 .3-.3 6.451 6.451 0 0 0-1.81-4.76c-1.19-1.16-2.692-1.76-4.462-1.76zm-3.954.69a.955.955 0 0 0-.615.12h-.012c-.41.24-.788.54-1.148.94-.27.32-.421.639-.461.949a1.24 1.24 0 0 0 .05.541l.02.01a13.722 13.722 0 0 0 1.2 2.6 15.383 15.383 0 0 0 2.32 3.171l.03.04.04.03.03.03.03.03a15.603 15.603 0 0 0 3.18 2.33c1.32.72 2.122 1.06 2.602 1.2v.01c.14.04.268.06.398.06a1.84 1.84 0 0 0 1.102-.472c.39-.35.7-.738.93-1.148v-.01c.23-.43.15-.841-.18-1.121a13.632 13.632 0 0 0-2.15-1.54c-.51-.28-1.03-.11-1.24.17l-.45.569c-.23.28-.65.24-.65.24l-.012.01c-3.12-.8-3.95-3.959-3.95-3.959s-.04-.43.25-.65l.56-.45c.27-.22.46-.74.17-1.25a13.522 13.522 0 0 0-1.54-2.15.843.843 0 0 0-.504-.3zm4.473.89a.3.3 0 0 0 .002.6 3.78 3.78 0 0 1 2.65 1.15 3.5 3.5 0 0 1 .9 2.57.3.3 0 0 0 .3.299l.01.012a.3.3 0 0 0 .3-.301c.03-1.19-.34-2.19-1.07-2.99-.73-.8-1.75-1.25-3.05-1.34a.3.3 0 0 0-.042 0zm.49 1.619a.305.305 0 0 0-.018.611c.99.05 1.47.55 1.53 1.58a.3.3 0 0 0 .3.29h.01a.3.3 0 0 0 .29-.32c-.07-1.34-.8-2.091-2.1-2.161a.305.305 0 0 0-.012 0z"  />
	</symbol>

	<symbol viewBox="0 0 24 24" fill="none" id="heart">
	<path d="M9 11.2857L10.8 13L15 9M12 6.59097L11.8456 6.42726C9.86801 4.33053 6.59738 4.57698 4.91934 6.94915C3.42999 9.05459 3.78668 12.0335 5.725 13.6776L12 19L18.275 13.6776C20.2133 12.0335 20.57 9.05459 19.0807 6.94915C17.4026 4.57697 14.132 4.33053 12.1544 6.42726L12 6.59097Z"  stroke-linecap="round" stroke-linejoin="round"/>
	</symbol>

	<symbol viewBox="0 0 24 24" fill="none" id="homee">
	<path d="M9 20H7C5.89543 20 5 19.1046 5 18V10.9199C5 10.336 5.25513 9.78132 5.69842 9.40136L10.6984 5.11564C11.4474 4.47366 12.5526 4.47366 13.3016 5.11564L18.3016 9.40136C18.7449 9.78132 19 10.336 19 10.9199V18C19 19.1046 18.1046 20 17 20H15M9 20V14C9 13.4477 9.44772 13 10 13H14C14.5523 13 15 13.4477 15 14V20M9 20H15" stroke-linecap="round" stroke-linejoin="round"/>
	</symbol>

	<symbol viewBox="0 0 24 24" fill="none" id="cloud">
	<path d="M12 12V19M12 19L9.75 16.6667M12 19L14.25 16.6667M6.6 17.8333C4.61178 17.8333 3 16.1917 3 14.1667C3 12.498 4.09438 11.0897 5.59198 10.6457C5.65562 10.6268 5.7 10.5675 5.7 10.5C5.7 7.46243 8.11766 5 11.1 5C14.0823 5 16.5 7.46243 16.5 10.5C16.5 10.5582 16.5536 10.6014 16.6094 10.5887C16.8638 10.5306 17.1284 10.5 17.4 10.5C19.3882 10.5 21 12.1416 21 14.1667C21 16.1917 19.3882 17.8333 17.4 17.8333" stroke-linecap="round" stroke-linejoin="round"/>
	</symbol>

	<symbol viewBox="0 0 24 24" fill="none" id="bookmark">
	<path d="M15.75 5H8.25C7.55964 5 7 5.58763 7 6.3125V19L12 15.5L17 19V6.3125C17 5.58763 16.4404 5 15.75 5Z" stroke-linecap="round" stroke-linejoin="round"/>
	</symbol>

	<symbol viewBox="0 0 24 24" fill="none" id="star" >
	<path d="M14.65 8.93274L12.4852 4.30901C12.2923 3.89699 11.7077 3.897 11.5148 4.30902L9.35002 8.93274L4.45559 9.68243C4.02435 9.74848 3.84827 10.2758 4.15292 10.5888L7.71225 14.2461L6.87774 19.3749C6.80571 19.8176 7.27445 20.1487 7.66601 19.9317L12 17.5299L16.334 19.9317C16.7256 20.1487 17.1943 19.8176 17.1223 19.3749L16.2878 14.2461L19.8471 10.5888C20.1517 10.2758 19.9756 9.74848 19.5444 9.68243L14.65 8.93274Z"  stroke-linecap="round" stroke-linejoin="round"/>
	</symbol>

	<symbol viewBox="0 0 31.493 31.492" id="gear1"
	 xml:space="preserve">
<g>
	<path d="M29.93,18.891c0.859,0,1.56-0.696,1.56-1.561v-3.176c0-0.861-0.697-1.56-1.56-1.56h-1.756c0-0.001,0-0.002-0.004-0.006
		c-0.307-1.215-0.789-2.361-1.418-3.41l1.223-1.225c0.607-0.609,0.607-1.596,0-2.205l-2.246-2.246
		c-0.293-0.293-0.69-0.457-1.104-0.457c-0.412,0-0.812,0.165-1.103,0.458l-1.223,1.223c-1.039-0.623-2.176-1.104-3.381-1.412
		c-0.004-0.001-0.012-0.903-0.02-1.765C18.895,0.692,18.2,0,17.34,0h-3.175c-0.416,0-0.814,0.166-1.107,0.461
		c-0.293,0.295-0.456,0.696-0.452,1.111l0.015,1.706c-1.244,0.264-2.417,0.8-3.491,1.442L7.915,3.502
		C7.623,3.209,7.226,3.045,6.812,3.045c-0.414,0-0.811,0.165-1.103,0.457L3.46,5.75c-0.608,0.609-0.609,1.596,0,2.205l1.223,1.223
		c-0.626,1.05-1.108,2.195-1.416,3.41c-0.001,0.004-0.001,0.005-0.003,0.006H1.562c-0.861,0-1.56,0.698-1.56,1.56v3.179
		c0,0.861,0.698,1.562,1.56,1.562h1.694c-0.015-0.062-0.027-0.119-0.042-0.184c0.015,0.059,0.027,0.118,0.042,0.176
		c0.308,1.231,0.793,2.394,1.429,3.455l-1.222,1.221c-0.293,0.291-0.457,0.688-0.457,1.104s0.164,0.811,0.457,1.104l2.247,2.248
		c0.292,0.291,0.688,0.457,1.102,0.457c0.413,0,0.811-0.166,1.103-0.457l1.221-1.223c1.071,0.641,2.245,1.131,3.488,1.438
		L12.61,29.92c-0.004,0.416,0.159,0.816,0.452,1.111s0.691,0.461,1.107,0.461h3.176c0.855,0,1.553-0.691,1.56-1.55
		c0.006-0.851,0.012-1.732,0.019-1.733c1.204-0.31,2.34-0.789,3.379-1.41l1.223,1.221c0.609,0.608,1.598,0.608,2.205,0l2.246-2.243
		c0.606-0.609,0.608-1.597,0-2.207l-1.224-1.224c0.638-1.062,1.121-2.224,1.433-3.455c0.016-0.059,0.016-0.055,0,0.008h1.748
		L29.93,18.891L29.93,18.891z M15.72,20.143c-2.421,0-4.384-1.965-4.384-4.385c0-2.419,1.963-4.385,4.384-4.385
		c2.421,0,4.384,1.964,4.384,4.385C20.104,18.18,18.141,20.143,15.72,20.143z"/>
</g>
	</symbol>
</svg>